<?xml version="1.0" encoding="UTF-8"?>
<svg id="Layer_1" data-name="Layer 1" xmlns="http://www.w3.org/2000/svg" xmlns:xlink="http://www.w3.org/1999/xlink" viewBox="0 0 994.63 212.49">
  <defs>
    <style>
      .cls-1 {
        fill: url(#linear-gradient-2);
      }

      .cls-2 {
        fill: url(#linear-gradient-6);
      }

      .cls-3 {
        fill: url(#linear-gradient-11);
      }

      .cls-4 {
        fill: url(#linear-gradient-10);
      }

      .cls-5 {
        fill: url(#linear-gradient-5);
      }

      .cls-6 {
        fill: url(#linear-gradient-7);
      }

      .cls-7 {
        fill: url(#linear-gradient-9);
      }

      .cls-8 {
        fill: url(#linear-gradient-3);
      }

      .cls-9 {
        fill: url(#linear-gradient);
      }

      .cls-10 {
        fill: url(#linear-gradient-4);
      }

      .cls-11 {
        fill: url(#linear-gradient-8);
      }

      .cls-12 {
        fill: url(#linear-gradient-12);
      }
    </style>
    <linearGradient id="linear-gradient" x1="-2.31" y1="26.81" x2="191.47" y2="205.87" gradientUnits="userSpaceOnUse">
      <stop offset="0" stop-color="#3e82c4"/>
      <stop offset="1" stop-color="#283575"/>
    </linearGradient>
    <linearGradient id="linear-gradient-2" x1="216.56" y1="6.15" x2="196.54" y2="229.38" gradientUnits="userSpaceOnUse">
      <stop offset="0" stop-color="#aed797"/>
      <stop offset="1" stop-color="#10a84b"/>
    </linearGradient>
    <linearGradient id="linear-gradient-3" x1="433.26" y1="-65.65" x2="429.81" y2="207.11" xlink:href="#linear-gradient"/>
    <linearGradient id="linear-gradient-4" x1="498.4" y1="-64.83" x2="494.95" y2="207.94" xlink:href="#linear-gradient"/>
    <linearGradient id="linear-gradient-5" x1="390.47" y1="-64.83" x2="387.02" y2="207.94" xlink:href="#linear-gradient"/>
    <linearGradient id="linear-gradient-6" x1="549.14" y1="-64.18" x2="545.68" y2="208.58" xlink:href="#linear-gradient"/>
    <linearGradient id="linear-gradient-7" x1="629.77" y1="-63.16" x2="626.32" y2="209.6" xlink:href="#linear-gradient"/>
    <linearGradient id="linear-gradient-8" x1="716.03" y1="-136.97" x2="709.13" y2="208.3" xlink:href="#linear-gradient-2"/>
    <linearGradient id="linear-gradient-9" x1="758.43" y1="-136.12" x2="751.53" y2="209.15" xlink:href="#linear-gradient-2"/>
    <linearGradient id="linear-gradient-10" x1="823.26" y1="-134.83" x2="816.36" y2="210.44" xlink:href="#linear-gradient-2"/>
    <linearGradient id="linear-gradient-11" x1="874.13" y1="-133.81" x2="867.23" y2="211.46" xlink:href="#linear-gradient-2"/>
    <linearGradient id="linear-gradient-12" x1="954.68" y1="-132.2" x2="947.77" y2="213.07" xlink:href="#linear-gradient-2"/>
  </defs>
  <g>
    <path class="cls-9" d="M101.17,212.37C46.79,209.83,2.66,165.7,.12,111.32-2.63,52.55,42.66,3.51,100.01,.18c3.39-.2,6.23,2.55,6.23,5.94v29.28c0,3.1-2.34,5.76-5.42,6.01-34.85,2.89-61.98,33.37-59.46,69.47,2.24,32.04,28.19,58,60.24,60.24,36.11,2.52,66.58-24.62,69.47-59.46,.26-3.09,2.92-5.42,6.01-5.42h29.28c3.39,0,6.14,2.84,5.94,6.23-3.33,57.35-52.37,102.64-111.14,99.89Z"/>
    <path class="cls-1" d="M207.58,206.36v-29.28c0-3.1,2.34-5.76,5.42-6.01,34.85-2.89,61.99-33.36,59.46-69.47-2.24-32.04-28.2-58-60.24-60.24-36.11-2.52-66.58,24.62-69.47,59.46-.26,3.09-2.92,5.42-6.01,5.42h-29.28c-3.39,0-6.14-2.84-5.94-6.23C104.85,42.66,153.89-2.63,212.66,.12c54.38,2.54,98.51,46.67,101.05,101.05,2.75,58.77-42.54,107.81-99.89,111.14-3.39,.2-6.23-2.55-6.23-5.94Z"/>
  </g>
  <g>
    <path class="cls-8" d="M447.58,65.77l-11.57,82.18h-24.45l11.58-82.18h24.45Zm-22.06-22.8c0-3.48,1.24-6.45,3.71-8.92,2.47-2.48,5.45-3.71,8.92-3.71s6.54,1.24,9.01,3.71c2.48,2.47,3.71,5.45,3.71,8.92s-1.24,6.54-3.71,9.01c-2.47,2.48-5.48,3.71-9.01,3.71s-6.45-1.24-8.92-3.71c-2.48-2.47-3.71-5.48-3.71-9.01Z"/>
    <path class="cls-10" d="M535.89,27.07l-2.75,19.7c-5.19-2.65-9.76-3.97-13.71-3.97-10.79,0-16.72,7.65-17.77,22.97h15.76l-2.58,18.11h-16l-14.07,100.12h-24.35l14.14-100.12h-16.7l2.56-18.11h16.73c1.63-14.02,5.93-24.67,12.88-31.95,6.95-7.28,15.67-10.91,26.15-10.91,6.25,0,12.81,1.39,19.71,4.16Z"/>
    <path class="cls-5" d="M427.96,27.07l-2.75,19.7c-5.19-2.65-9.76-3.97-13.71-3.97-10.79,0-16.72,7.65-17.77,22.97h15.76l-2.58,18.11h-16l-14.07,100.12h-24.35l14.14-100.12h-16.7l2.56-18.11h16.73c1.63-14.02,5.93-24.67,12.88-31.95,6.95-7.28,15.67-10.91,26.15-10.91,6.25,0,12.81,1.39,19.71,4.16Z"/>
    <path class="cls-2" d="M563.75,48.46l-3.44,17.32h18.08l-3.26,18.11h-17.99l-4.75,26.61c-.42,2.3-.62,4.42-.62,6.36,0,7.24,2.44,10.86,7.31,10.86,2.93,0,7.63-1.65,14.09-4.94v21.56c-7.18,3.48-14.19,5.21-21.03,5.21-7.95,0-14.22-2.52-18.78-7.55-4.57-5.04-6.84-11.56-6.84-19.58,0-2.47,.23-4.89,.7-7.24l5.74-31.28h-16.61l3.09-18.11h16.62l2.91-17.32h24.77Z"/>
    <polygon class="cls-6" points="672.06 65.77 612.17 189.57 586.47 189.57 610.53 140.07 584.23 65.77 608.68 65.77 624.83 113.75 646.65 65.77 672.06 65.77"/>
    <path class="cls-11" d="M751.2,27.07l-2.75,19.7c-5.19-2.65-9.76-3.97-13.71-3.97-10.79,0-16.72,7.65-17.77,22.97h15.76l-2.58,18.11h-16l-14.07,100.12h-24.35l14.14-100.12h-16.7l2.56-18.11h16.73c1.63-14.02,5.93-24.67,12.88-31.95,6.95-7.28,15.67-10.91,26.15-10.91,6.25,0,12.81,1.39,19.71,4.16Z"/>
    <path class="cls-7" d="M770.17,65.77l-11.57,82.18h-24.45l11.58-82.18h24.45Zm-22.06-22.8c0-3.48,1.24-6.45,3.71-8.92,2.47-2.48,5.45-3.71,8.92-3.71s6.54,1.24,9.01,3.71c2.48,2.47,3.71,5.45,3.71,8.92s-1.24,6.54-3.71,9.01c-2.47,2.48-5.48,3.71-9.01,3.71s-6.45-1.24-8.92-3.71c-2.48-2.47-3.71-5.48-3.71-9.01Z"/>
    <path class="cls-4" d="M858.47,27.07l-2.75,19.7c-5.19-2.65-9.76-3.97-13.71-3.97-10.79,0-16.72,7.65-17.77,22.97h15.76l-2.58,18.11h-16l-14.07,100.12h-24.35l14.14-100.12h-16.7l2.56-18.11h16.73c1.63-14.02,5.93-24.67,12.88-31.95,6.95-7.28,15.67-10.91,26.15-10.91,6.25,0,12.81,1.39,19.71,4.16Z"/>
    <path class="cls-3" d="M886.33,48.46l-3.44,17.32h18.08l-3.26,18.11h-17.99l-4.75,26.61c-.42,2.3-.62,4.42-.62,6.36,0,7.24,2.44,10.86,7.31,10.86,2.93,0,7.63-1.65,14.09-4.94v21.56c-7.18,3.48-14.19,5.21-21.03,5.21-7.95,0-14.22-2.52-18.78-7.55-4.57-5.04-6.84-11.56-6.84-19.58,0-2.47,.23-4.89,.7-7.24l5.74-31.28h-16.61l3.09-18.11h16.62l2.91-17.32h24.77Z"/>
    <path class="cls-12" d="M994.63,65.77l-59.89,123.8h-25.7l24.06-49.51-26.31-74.29h24.45l16.15,47.98,21.82-47.98h25.41Z"/>
  </g>
</svg>