<?xml version="1.0" encoding="UTF-8"?>
<svg id="Layer_1" data-name="Layer 1" xmlns="http://www.w3.org/2000/svg" xmlns:xlink="http://www.w3.org/1999/xlink" viewBox="0 0 998.8 229.78">
  <defs>
    <style>
      .cls-1 {
        fill: url(#linear-gradient-2);
      }

      .cls-2 {
        fill: url(#linear-gradient-17);
      }

      .cls-3 {
        fill: url(#linear-gradient-15);
      }

      .cls-4 {
        fill: url(#linear-gradient-18);
      }

      .cls-5 {
        fill: url(#linear-gradient-14);
      }

      .cls-6 {
        fill: url(#linear-gradient-6);
      }

      .cls-7 {
        fill: url(#linear-gradient-11);
      }

      .cls-8 {
        fill: url(#linear-gradient-10);
      }

      .cls-9 {
        fill: url(#linear-gradient-16);
      }

      .cls-10 {
        fill: url(#linear-gradient-5);
      }

      .cls-11 {
        fill: url(#linear-gradient-7);
      }

      .cls-12 {
        fill: url(#linear-gradient-9);
      }

      .cls-13 {
        fill: url(#linear-gradient-3);
      }

      .cls-14 {
        fill: url(#linear-gradient);
      }

      .cls-15 {
        fill: url(#linear-gradient-4);
      }

      .cls-16 {
        fill: url(#linear-gradient-8);
      }

      .cls-17 {
        fill: url(#linear-gradient-12);
      }

      .cls-18 {
        fill: url(#linear-gradient-13);
      }
    </style>
    <linearGradient id="linear-gradient" x1="19.96" y1="67.69" x2="200.92" y2="157.68" gradientUnits="userSpaceOnUse">
      <stop offset="0" stop-color="#aed797"/>
      <stop offset="1" stop-color="#10a84b"/>
    </linearGradient>
    <linearGradient id="linear-gradient-2" x1="190.41" y1="178.92" x2="40.77" y2="52.15" xlink:href="#linear-gradient"/>
    <linearGradient id="linear-gradient-3" x1="266.97" y1="-1.94" x2="179.97" y2="217.79" gradientUnits="userSpaceOnUse">
      <stop offset="0" stop-color="#3e82c4"/>
      <stop offset="1" stop-color="#283575"/>
    </linearGradient>
    <linearGradient id="linear-gradient-4" x1="125.63" y1="134.6" x2="315.03" y2="95.33" xlink:href="#linear-gradient-3"/>
    <linearGradient id="linear-gradient-5" x1="119.48" y1="11.21" x2="141.35" y2="33.83" gradientUnits="userSpaceOnUse">
      <stop offset="0" stop-color="#aed797" stop-opacity="0"/>
      <stop offset="1" stop-color="#010101" stop-opacity=".5"/>
    </linearGradient>
    <linearGradient id="linear-gradient-6" x1="208.28" y1="79.75" x2="181.19" y2="38.99" gradientUnits="userSpaceOnUse">
      <stop offset="0" stop-color="#aed797" stop-opacity="0"/>
      <stop offset="1" stop-color="#010101" stop-opacity=".5"/>
    </linearGradient>
    <linearGradient id="linear-gradient-7" x1="133.9" y1="157.41" x2="154.03" y2="190.03" gradientUnits="userSpaceOnUse">
      <stop offset="0" stop-color="#1e4993" stop-opacity="0"/>
      <stop offset="1" stop-color="#010101" stop-opacity=".5"/>
    </linearGradient>
    <linearGradient id="linear-gradient-8" x1="237.19" y1="216.4" x2="196.92" y2="190.49" xlink:href="#linear-gradient-7"/>
    <linearGradient id="linear-gradient-9" x1="446.46" y1="-51.71" x2="443.06" y2="216.66" xlink:href="#linear-gradient-3"/>
    <linearGradient id="linear-gradient-10" x1="510.55" y1="-50.9" x2="507.15" y2="217.47" xlink:href="#linear-gradient-3"/>
    <linearGradient id="linear-gradient-11" x1="404.36" y1="-50.9" x2="400.96" y2="217.47" xlink:href="#linear-gradient-3"/>
    <linearGradient id="linear-gradient-12" x1="560.47" y1="-50.27" x2="557.07" y2="218.11" xlink:href="#linear-gradient-3"/>
    <linearGradient id="linear-gradient-13" x1="639.81" y1="-49.26" x2="636.41" y2="219.11" xlink:href="#linear-gradient-3"/>
    <linearGradient id="linear-gradient-14" x1="724.68" y1="-121.88" x2="717.89" y2="217.83" xlink:href="#linear-gradient"/>
    <linearGradient id="linear-gradient-15" x1="766.4" y1="-121.05" x2="759.61" y2="218.66" xlink:href="#linear-gradient"/>
    <linearGradient id="linear-gradient-16" x1="830.19" y1="-119.77" x2="823.39" y2="219.94" xlink:href="#linear-gradient"/>
    <linearGradient id="linear-gradient-17" x1="880.23" y1="-118.77" x2="873.44" y2="220.94" xlink:href="#linear-gradient"/>
    <linearGradient id="linear-gradient-18" x1="959.48" y1="-117.19" x2="952.69" y2="222.53" xlink:href="#linear-gradient"/>
  </defs>
  <g>
    <g>
      <path class="cls-14" d="M197.63,194.67c-.48,.5-.96,.99-1.46,1.49-3.89,3.89-7.99,7.44-12.28,10.66-5.12,3.86-10.52,7.24-16.09,10.13-43.28,22.4-97.94,15.49-134.19-20.76-44.81-44.82-44.81-117.75,0-162.56C50.96,16.26,72.52,5.64,95.02,1.73c24.54-4.29,50.21-.58,72.78,11.12-5.58,2.88-10.95,6.25-16.09,10.12-18.06-7.24-37.83-8.93-56.69-5.09-18.36,3.74-35.88,12.74-50.13,26.99-38.66,38.66-38.68,101.35-.02,140.01,28.88,28.88,71.17,36.19,106.83,21.92,5.55-2.22,10.94-4.95,16.09-8.24,4.79-3.02,9.38-6.51,13.7-10.46,1.16-1.04,2.29-2.12,3.4-3.23,26.81-26.81,35.03-65.16,24.66-99.05-4.59-15-12.81-29.1-24.67-40.96-1.11-1.11-2.24-2.19-3.38-3.21,5.17-2.78,10.57-4.95,16.12-6.55,14.17,14.67,23.65,32.21,28.45,50.72,9.74,37.52,.26,79.08-28.45,108.82Z"/>
      <path class="cls-1" d="M184.9,184.89c-1.11,1.11-2.24,2.19-3.4,3.23-4.33,3.94-8.92,7.44-13.7,10.46-5.15,3.28-10.54,6.02-16.09,8.24-35.66,14.27-77.95,6.96-106.83-21.92-38.66-38.66-38.64-101.35,.02-140.01,14.25-14.25,31.77-23.25,50.13-26.99,18.86-3.84,38.63-2.15,56.69,5.09-4.28,3.2-8.37,6.74-12.26,10.64-.5,.5-.99,.99-1.47,1.51-13.99-4.03-28.85-4.31-42.95-.86-14.25,3.48-27.76,10.79-38.86,21.89-32.4,32.4-32.4,85.09,0,117.49,22.11,22.09,53.69,29.1,81.81,21.03,5.53-1.59,10.94-3.78,16.11-6.55,4.79-2.55,9.4-5.62,13.7-9.21,2.01-1.64,3.96-3.41,5.83-5.29,23.7-23.7,30.04-58.25,19.06-87.78-4.01-10.84-10.37-21-19.06-29.68-1.87-1.87-3.81-3.65-5.82-5.3,4.31-3.58,8.9-6.65,13.7-9.2,1.14,1.03,2.27,2.1,3.38,3.21,11.86,11.86,20.08,25.97,24.67,40.96,10.37,33.89,2.15,72.23-24.66,99.05Z"/>
    </g>
    <g>
      <path class="cls-13" d="M301.99,196.16c-11.78,11.8-25.52,20.48-40.19,26.07-30.41,11.6-64.81,9.83-94.01-5.29,5.57-2.88,10.97-6.26,16.09-10.13,25.02,10.01,53.29,9.4,77.92-1.84,10.47-4.76,20.3-11.47,28.92-20.08,38.66-38.66,38.66-101.33-.02-140.01-28.88-28.88-71.16-36.19-106.82-21.91-5.55,2.2-10.94,4.95-16.09,8.22-4.79,3.03-9.38,6.53-13.7,10.47-1.14,1.03-2.27,2.1-3.38,3.21-23.23,23.23-32.51,55.17-27.81,85.32,3.1,20.02,12.38,39.27,27.79,54.68,1.11,1.11,2.24,2.19,3.38,3.23-5.17,2.77-10.57,4.95-16.11,6.55-17.62-18.28-28.01-40.96-31.14-64.46-4.47-33.66,5.9-68.94,31.14-95.08,.48-.51,.98-1.01,1.47-1.51,3.89-3.89,7.99-7.44,12.26-10.64,5.14-3.88,10.51-7.24,16.09-10.12,43.28-22.42,97.94-15.49,134.19,20.78,44.81,44.79,44.82,117.7,0,162.53Z"/>
      <path class="cls-15" d="M290.72,184.89c-8.62,8.62-18.44,15.33-28.92,20.08-24.62,11.24-52.9,11.85-77.92,1.84,4.29-3.21,8.39-6.76,12.28-10.66,.5-.5,.98-.99,1.46-1.49,21.28,6.11,44.54,3.58,64.18-7.61,6.31-3.58,12.26-8.05,17.65-13.44,32.38-32.38,32.38-85.08,0-117.46-22.12-22.12-53.71-29.13-81.83-21.05-5.55,1.59-10.95,3.76-16.12,6.55-4.81,2.55-9.4,5.62-13.7,9.2-2.01,1.66-3.94,3.41-5.82,5.29-20.1,20.1-27.72,48.02-22.85,74.06,2.95,15.93,10.57,31.14,22.85,43.43,1.87,1.87,3.79,3.63,5.8,5.27-4.31,3.6-8.92,6.66-13.7,9.21-1.14-1.04-2.27-2.12-3.38-3.23-15.41-15.41-24.69-34.67-27.79-54.68-4.71-30.16,4.57-62.09,27.81-85.32,1.11-1.11,2.24-2.19,3.38-3.21,4.32-3.94,8.92-7.44,13.7-10.47,5.15-3.26,10.54-6.02,16.09-8.22,35.66-14.28,77.93-6.98,106.82,21.91,38.68,38.68,38.68,101.35,.02,140.01Z"/>
    </g>
    <path class="cls-10" d="M167.8,12.85c-5.58,2.88-10.95,6.25-16.09,10.12-4.28,3.2-8.37,6.74-12.26,10.64-.5,.5-.99,.99-1.47,1.51-13.99-4.03-28.85-4.31-42.95-.86V1.73c24.54-4.29,50.21-.58,72.78,11.12Z"/>
    <path class="cls-6" d="M226.08,85.84h-33.41c-4.01-10.84-10.37-21-19.06-29.68-1.87-1.87-3.81-3.65-5.82-5.3,4.31-3.58,8.9-6.65,13.7-9.2,5.17-2.78,10.57-4.95,16.12-6.55,14.17,14.67,23.65,32.21,28.45,50.72Z"/>
    <path class="cls-11" d="M161.98,173.64c1.87,1.87,3.79,3.63,5.8,5.27-4.31,3.6-8.92,6.66-13.7,9.21-5.17,2.77-10.57,4.95-16.11,6.55-17.62-18.28-28.01-40.96-31.14-64.46h32.3c2.95,15.93,10.57,31.14,22.85,43.43Z"/>
    <path class="cls-16" d="M261.81,187.06v35.16c-30.41,11.6-64.81,9.83-94.01-5.29,5.57-2.88,10.97-6.26,16.09-10.13,4.29-3.21,8.39-6.76,12.28-10.66,.5-.5,.98-.99,1.46-1.49,21.28,6.11,44.54,3.58,64.18-7.61Z"/>
  </g>
  <g>
    <path class="cls-12" d="M460.55,77.6l-11.39,80.85h-24.06l11.39-80.85h24.05Zm-21.71-22.43c0-3.42,1.22-6.35,3.65-8.78,2.43-2.44,5.36-3.65,8.78-3.65s6.43,1.22,8.86,3.65c2.44,2.43,3.65,5.36,3.65,8.78s-1.22,6.43-3.65,8.86c-2.43,2.44-5.39,3.65-8.86,3.65s-6.35-1.22-8.78-3.65c-2.44-2.43-3.65-5.39-3.65-8.86Z"/>
    <path class="cls-8" d="M547.44,39.52l-2.7,19.39c-5.11-2.61-9.6-3.91-13.49-3.91-10.62,0-16.45,7.53-17.48,22.6h15.5l-2.53,17.82h-15.74l-13.84,98.5h-23.96l13.91-98.5h-16.43l2.51-17.82h16.46c1.61-13.8,5.83-24.27,12.67-31.43,6.84-7.16,15.41-10.74,25.73-10.74,6.15,0,12.61,1.36,19.39,4.09Z"/>
    <path class="cls-7" d="M441.25,39.52l-2.7,19.39c-5.11-2.61-9.6-3.91-13.49-3.91-10.62,0-16.45,7.53-17.48,22.6h15.5l-2.53,17.82h-15.74l-13.84,98.5h-23.96l13.91-98.5h-16.43l2.51-17.82h16.46c1.61-13.8,5.83-24.27,12.67-31.43,6.84-7.16,15.41-10.74,25.73-10.74,6.15,0,12.61,1.36,19.39,4.09Z"/>
    <path class="cls-17" d="M574.85,60.56l-3.38,17.04h17.79l-3.21,17.82h-17.7l-4.68,26.18c-.41,2.26-.61,4.35-.61,6.26,0,7.13,2.4,10.69,7.2,10.69,2.89,0,7.51-1.62,13.87-4.87v21.21c-7.07,3.42-13.97,5.13-20.69,5.13-7.83,0-13.99-2.48-18.48-7.43-4.49-4.95-6.73-11.37-6.73-19.26,0-2.43,.23-4.81,.69-7.13l5.65-30.78h-16.34l3.04-17.82h16.35l2.87-17.04h24.37Z"/>
    <path class="cls-18" d="M681.41,77.6l-58.92,121.81h-25.29l23.67-48.71-25.88-73.1h24.06l15.89,47.21,21.47-47.21h25Z"/>
    <path class="cls-5" d="M759.28,39.52l-2.7,19.39c-5.11-2.61-9.6-3.91-13.49-3.91-10.62,0-16.45,7.53-17.48,22.6h15.5l-2.53,17.82h-15.74l-13.84,98.5h-23.96l13.91-98.5h-16.43l2.51-17.82h16.46c1.61-13.8,5.83-24.27,12.67-31.43,6.84-7.16,15.41-10.74,25.73-10.74,6.15,0,12.61,1.36,19.39,4.09Z"/>
    <path class="cls-3" d="M777.94,77.6l-11.39,80.85h-24.06l11.39-80.85h24.05Zm-21.71-22.43c0-3.42,1.22-6.35,3.65-8.78,2.43-2.44,5.36-3.65,8.78-3.65s6.43,1.22,8.86,3.65c2.44,2.43,3.65,5.36,3.65,8.78s-1.22,6.43-3.65,8.86c-2.43,2.44-5.39,3.65-8.86,3.65s-6.35-1.22-8.78-3.65c-2.44-2.43-3.65-5.39-3.65-8.86Z"/>
    <path class="cls-9" d="M864.83,39.52l-2.7,19.39c-5.11-2.61-9.6-3.91-13.49-3.91-10.62,0-16.45,7.53-17.48,22.6h15.5l-2.53,17.82h-15.74l-13.84,98.5h-23.96l13.91-98.5h-16.43l2.51-17.82h16.46c1.61-13.8,5.83-24.27,12.67-31.43,6.84-7.16,15.41-10.74,25.73-10.74,6.15,0,12.61,1.36,19.39,4.09Z"/>
    <path class="cls-2" d="M892.24,60.56l-3.38,17.04h17.79l-3.21,17.82h-17.7l-4.68,26.18c-.41,2.26-.61,4.35-.61,6.26,0,7.13,2.4,10.69,7.2,10.69,2.89,0,7.51-1.62,13.87-4.87v21.21c-7.07,3.42-13.97,5.13-20.69,5.13-7.83,0-13.99-2.48-18.48-7.43-4.49-4.95-6.73-11.37-6.73-19.26,0-2.43,.23-4.81,.69-7.13l5.65-30.78h-16.34l3.04-17.82h16.35l2.87-17.04h24.37Z"/>
    <path class="cls-4" d="M998.8,77.6l-58.92,121.81h-25.29l23.67-48.71-25.88-73.1h24.06l15.89,47.21,21.47-47.21h25Z"/>
  </g>
</svg>