<svg width="115" height="78" viewBox="0 0 115 78" fill="none" xmlns="http://www.w3.org/2000/svg">
<path d="M36.9031 77.6398C17.0731 76.7098 0.973118 60.6198 0.0431182 40.7798C-0.956882 19.3398 15.5631 1.45979 36.4831 0.239792C37.7231 0.169792 38.7531 1.16979 38.7531 2.40979V13.0898C38.7531 14.2198 37.9031 15.1898 36.7731 15.2798C24.0631 16.3298 14.1631 27.4498 15.0831 40.6198C15.9031 52.3098 25.3631 61.7798 37.0531 62.5898C50.2231 63.5098 61.3431 53.6098 62.3931 40.8998C62.4831 39.7698 63.4531 38.9198 64.5831 38.9198H75.2631C76.5031 38.9198 77.5031 39.9598 77.4331 41.1898C76.2131 62.1098 58.3331 78.6298 36.8931 77.6298L36.9031 77.6398Z" fill="url(#paint0_linear_356_3968)"/>
<path d="M75.7128 75.4496V64.7697C75.7128 63.6397 76.5627 62.6696 77.6927 62.5796C90.4027 61.5296 100.303 50.4097 99.3827 37.2397C98.5627 25.5497 89.1028 16.0797 77.4128 15.2697C64.2428 14.3497 53.1227 24.2496 52.0727 36.9596C51.9827 38.0896 51.0127 38.9396 49.8827 38.9396H39.2027C37.9627 38.9396 36.9628 37.8996 37.0328 36.6696C38.2528 15.7496 56.1327 -0.770358 77.5727 0.229642C97.4027 1.15964 113.503 17.2496 114.433 37.0896C115.433 58.5296 98.9127 76.4097 77.9927 77.6297C76.7527 77.6997 75.7228 76.6996 75.7228 75.4596L75.7128 75.4496Z" fill="url(#paint1_linear_356_3968)"/>
<defs>
<linearGradient id="paint0_linear_356_3968" x1="-0.846882" y1="9.95979" x2="69.8431" y2="75.2698" gradientUnits="userSpaceOnUse">
<stop stop-color="#0689EF"/>
<stop offset="1" stop-color="#233375"/>
</linearGradient>
<linearGradient id="paint1_linear_356_3968" x1="78.9927" y1="2.41964" x2="71.6927" y2="83.8497" gradientUnits="userSpaceOnUse">
<stop stop-color="#ABE098"/>
<stop offset="1" stop-color="#04A949"/>
</linearGradient>
</defs>
</svg>
