<svg width="151" height="40" viewBox="0 0 151 40" fill="none" xmlns="http://www.w3.org/2000/svg">
<g clip-path="url(#clip0_300_2248)">
<path d="M60.6377 10.9893L60.1728 14.2083H53.2383L52.6263 18.7417H58.5976L58.1444 21.9333H52.1516L50.9962 30.1232H46.9297L49.627 10.9893H60.6377Z" fill="#000330"/>
<path d="M65.8934 17.3862L64.0985 30.1232H60.3086L62.1035 17.3862H65.8934ZM62.4723 13.8532C62.4723 13.3138 62.6645 12.8528 63.0471 12.4703C63.4296 12.0858 63.8906 11.8955 64.43 11.8955C64.9773 11.8955 65.4442 12.0877 65.8267 12.4703C66.2112 12.8528 66.4015 13.3138 66.4015 13.8532C66.4015 14.4005 66.2092 14.8674 65.8267 15.2499C65.4442 15.6344 64.9773 15.8247 64.43 15.8247C63.8906 15.8247 63.4296 15.6325 63.0471 15.2499C62.6645 14.8674 62.4723 14.4005 62.4723 13.8532Z" fill="#000330"/>
<path d="M79.578 11.3876L79.1523 14.4419C78.348 14.0319 77.6399 13.8259 77.0259 13.8259C75.3526 13.8259 74.4345 15.0127 74.2717 17.3863H76.7139L76.3138 20.1934H73.8342L71.6529 35.712H67.8787L70.0698 20.1934H67.4805L67.8767 17.3863H70.47C70.7231 15.2128 71.3881 13.563 72.465 12.4351C73.542 11.3071 74.8935 10.7441 76.5197 10.7441C77.4908 10.7441 78.5089 10.958 79.578 11.3876Z" fill="#000330"/>
<path d="M83.8991 14.7031L83.3675 17.3886H86.1687L85.6626 20.1958H82.8751L82.1375 24.3191C82.0728 24.6762 82.0414 25.0038 82.0414 25.3039C82.0414 26.426 82.42 26.987 83.1753 26.987C83.6304 26.987 84.3581 26.732 85.3605 26.22V29.5626C84.2463 30.1021 83.1596 30.3708 82.1022 30.3708C80.8703 30.3708 79.8993 29.9805 79.1911 29.1997C78.483 28.419 78.1299 27.4087 78.1299 26.1651C78.1299 25.7825 78.1672 25.4079 78.2397 25.043L79.1303 20.1938H76.5547L77.0333 17.3867H79.609L80.0602 14.7012H83.8991V14.7031Z" fill="#000330"/>
<path d="M100.686 17.3867L91.4036 36.5756H87.4195L91.1486 28.9016L87.0703 17.3867H90.8602L93.3633 24.8233L96.7452 17.3867H100.686Z" fill="#000330"/>
<path d="M112.955 11.3876L112.529 14.4419C111.725 14.0319 111.017 13.8259 110.403 13.8259C108.73 13.8259 107.811 15.0127 107.649 17.3863H110.091L109.691 20.1934H107.211L105.03 35.712H101.256L103.447 20.1934H100.857L101.254 17.3863H103.847C104.1 15.2128 104.765 13.563 105.842 12.4351C106.919 11.3071 108.27 10.7441 109.897 10.7441C110.868 10.7441 111.886 10.958 112.955 11.3876Z" fill="#000330"/>
<path d="M115.893 17.3862L114.099 30.1232H110.309L112.103 17.3862H115.893ZM112.474 13.8532C112.474 13.3138 112.666 12.8528 113.049 12.4703C113.432 12.0858 113.893 11.8955 114.432 11.8955C114.979 11.8955 115.446 12.0877 115.829 12.4703C116.213 12.8528 116.403 13.3138 116.403 13.8532C116.403 14.4005 116.211 14.8674 115.829 15.2499C115.446 15.6344 114.979 15.8247 114.432 15.8247C113.893 15.8247 113.432 15.6325 113.049 15.2499C112.666 14.8674 112.474 14.4005 112.474 13.8532Z" fill="#000330"/>
<path d="M129.582 11.3876L129.156 14.4419C128.352 14.0319 127.644 13.8259 127.03 13.8259C125.356 13.8259 124.438 15.0127 124.276 17.3863H126.718L126.318 20.1934H123.838L121.657 35.712H117.883L120.074 20.1934H117.484L117.881 17.3863H120.474C120.727 15.2128 121.392 13.563 122.469 12.4351C123.546 11.3071 124.897 10.7441 126.524 10.7441C127.495 10.7441 128.513 10.958 129.582 11.3876Z" fill="#000330"/>
<path d="M133.901 14.7031L133.369 17.3886H136.171L135.665 20.1958H132.877L132.139 24.3191C132.075 24.6762 132.043 25.0038 132.043 25.3039C132.043 26.426 132.422 26.987 133.177 26.987C133.632 26.987 134.36 26.732 135.362 26.22V29.5626C134.248 30.1021 133.162 30.3708 132.104 30.3708C130.872 30.3708 129.901 29.9805 129.193 29.1997C128.485 28.419 128.132 27.4087 128.132 26.1651C128.132 25.7825 128.169 25.4079 128.242 25.043L129.132 20.1938H126.557L127.035 17.3867H129.611L130.062 14.7012H133.901V14.7031Z" fill="#000330"/>
<path d="M150.688 17.3867L141.406 36.5756H137.421L141.151 28.9016L137.072 17.3867H140.862L143.365 24.8233L146.747 17.3867H150.688Z" fill="#000330"/>
<path d="M13.3834 22.9141C13.3834 25.1896 11.5375 27.0375 9.2522 27.0375C8.29688 27.0375 7.42198 26.7158 6.7256 26.1685C6.64713 26.1136 6.56867 26.043 6.49805 25.9723L12.1613 19.9795C12.9146 20.723 13.3834 21.7626 13.3834 22.9141Z" fill="url(#paint0_linear_300_2248)"/>
<path d="M14.5673 23.4147C14.5437 23.5324 14.5202 23.658 14.4888 23.7737C14.2613 24.6349 13.7924 25.4019 13.1588 26.0041C12.9862 26.1767 12.792 26.3317 12.5958 26.4651C12.4938 26.5357 12.384 26.6063 12.2741 26.6769C12.0622 26.8025 11.8367 26.9123 11.6091 26.9987C11.6091 26.9987 11.6091 26.9986 11.6013 27.0065C11.2501 27.1399 10.8813 27.2419 10.5067 27.289C10.4046 27.3047 10.3105 27.3125 10.2085 27.3204C10.1928 27.3125 10.1771 27.3125 10.1614 27.3204C9.89462 27.3361 9.63764 27.3361 9.37871 27.3047C9.22177 27.289 9.06484 27.2654 8.90987 27.234C8.75294 27.2105 8.60385 27.1713 8.45673 27.1163C8.15856 27.0379 7.8702 26.9202 7.60341 26.7731C7.46217 26.7024 7.32878 26.624 7.2052 26.5377C7.04042 26.4278 6.8776 26.3101 6.72852 26.1708C7.4249 26.7181 8.30176 27.0398 9.25512 27.0398C11.5385 27.0398 13.3864 25.1939 13.3864 22.9165C13.3864 21.7669 12.9175 20.7253 12.1662 19.9838L14.1612 17.8711C14.0043 18.0359 13.8866 18.2301 13.8101 18.4341C13.5982 18.9657 13.661 19.5758 13.9748 20.0995C14.528 21.045 14.7772 22.1946 14.5673 23.4147Z" fill="url(#paint1_linear_300_2248)"/>
<path opacity="0.25" d="M14.5673 23.4147C14.5437 23.5324 14.5202 23.658 14.4888 23.7737C14.2613 24.6349 13.7924 25.4019 13.1588 26.0041C12.9862 26.1767 12.792 26.3317 12.5958 26.4651C12.4938 26.5357 12.384 26.6063 12.2741 26.6769C12.0622 26.8025 11.8367 26.9123 11.6091 26.9987C11.6091 26.9987 11.6091 26.9986 11.6013 27.0065C11.2501 27.1399 10.8813 27.2419 10.5067 27.289C10.4046 27.3047 10.3105 27.3125 10.2085 27.3204C10.1928 27.3125 10.1771 27.3125 10.1614 27.3204C9.89462 27.3361 9.63764 27.3361 9.37871 27.3047C9.22177 27.289 9.06484 27.2654 8.90987 27.234C8.75294 27.2105 8.60385 27.1713 8.45673 27.1163C8.15856 27.0379 7.8702 26.9202 7.60341 26.7731C7.46217 26.7024 7.32878 26.624 7.2052 26.5377C7.04042 26.4278 6.8776 26.3101 6.72852 26.1708C7.4249 26.7181 8.30176 27.0398 9.25512 27.0398C11.5385 27.0398 13.3864 25.1939 13.3864 22.9165C13.3864 21.7669 12.9175 20.7253 12.1662 19.9838L14.1612 17.8711C14.0043 18.0359 13.8866 18.2301 13.8101 18.4341C13.5982 18.9657 13.661 19.5758 13.9748 20.0995C14.528 21.045 14.7772 22.1946 14.5673 23.4147Z" fill="black"/>
<path d="M5.25723 21.176C5.12384 21.6135 5.06891 22.0607 5.06891 22.5139C5.06891 23.7654 5.54559 25.0091 6.49307 25.9644L6.50092 25.9722C6.72062 26.1841 6.95406 26.3705 7.20515 26.5352C7.3307 26.6215 7.46409 26.7 7.60336 26.7706C7.87015 26.9197 8.15851 27.0374 8.45668 27.1139C8.60577 27.1688 8.75485 27.2081 8.90982 27.2316C9.06676 27.263 9.22369 27.2865 9.37866 27.3022C9.6376 27.3336 9.89457 27.3336 10.1614 27.3179C10.177 27.3101 10.1927 27.3101 10.2084 27.3179C10.3104 27.3101 10.4046 27.3022 10.5066 27.2865C10.8813 27.2395 11.2501 27.1375 11.6012 27.0041C11.6091 26.9962 11.6091 26.9962 11.6091 26.9962C11.8366 26.9099 12.0622 26.8001 12.2741 26.6745C12.3839 26.6039 12.4938 26.5333 12.5958 26.4627C12.7919 26.3293 12.9861 26.1723 13.1588 26.0017C13.7924 25.3994 14.2612 24.6324 14.4888 23.7713C14.5201 23.6536 14.5437 23.528 14.5672 23.4123C14.7791 22.1921 14.528 21.0426 13.9728 20.0951C13.659 19.5714 13.5982 18.9613 13.8081 18.4297C13.8865 18.2257 14.0042 18.0315 14.1592 17.8667L14.167 17.8589L14.269 17.749C16.1542 15.7462 19.5184 17.0762 19.5184 19.8303V35.7491C19.5184 39.5272 14.9497 41.4202 12.2819 38.7445L5.37493 31.8552L2.77771 29.258C0.657164 27.1296 -0.258927 24.244 0.062784 21.4585C0.290335 19.4792 1.14169 17.5705 2.61293 16.0129L17.0154 0.774852C17.4999 0.266784 18.1492 0 18.7985 0C19.2281 0 19.6518 0.109852 20.0265 0.335442C20.2148 0.445294 20.3855 0.578687 20.5424 0.733657C21.0191 1.21034 21.2545 1.8361 21.2545 2.46187C21.2545 3.07194 21.0348 3.68202 20.5816 4.1587L6.39891 19.1653C5.97716 19.6185 5.6476 20.1285 5.43574 20.6758C5.38866 20.7699 5.35728 20.8641 5.33374 20.9583C5.30431 21.0289 5.27292 21.0995 5.25723 21.176Z" fill="url(#paint2_linear_300_2248)"/>
<path opacity="0.2" d="M20.0262 0.335442L0.0625 21.4585C0.290051 19.4792 1.14141 17.5705 2.61264 16.0129L17.0151 0.774852C17.4996 0.266784 18.1489 0 18.7982 0C19.2278 0 19.6515 0.109852 20.0262 0.335442Z" fill="white"/>
<path opacity="0.1" d="M19.5185 24.7832V35.7508C19.5185 39.5289 14.9498 41.4219 12.282 38.7462L5.375 31.855L10.3733 36.049C13.4629 38.6462 18.1885 36.7532 18.6338 32.7475L19.5185 24.7832Z" fill="black"/>
<path opacity="0.2" d="M14.3726 20.2917C14.0941 20.0446 13.894 19.715 13.8371 19.3482C13.7743 18.95 13.841 18.4262 14.2255 17.9554C14.9101 17.1158 16.7031 16.1605 18.494 17.6729C18.8883 18.0064 19.1806 18.489 19.312 18.9872C19.4101 19.3639 19.4082 19.8033 19.4219 20.4722V23.7952V24.7819L14.3726 20.2917Z" fill="white"/>
<path d="M29.125 22.9141C29.125 25.1896 30.9709 27.0375 33.2562 27.0375C34.2116 27.0375 35.0865 26.7158 35.7828 26.1685C35.8613 26.1136 35.9398 26.043 36.0104 25.9723L30.3471 19.9795C29.5938 20.723 29.125 21.7626 29.125 22.9141Z" fill="url(#paint3_linear_300_2248)"/>
<path d="M27.9439 23.4147C27.9674 23.5324 27.991 23.658 28.0224 23.7737C28.2499 24.6349 28.7188 25.4019 29.3524 26.0041C29.525 26.1767 29.7192 26.3317 29.9154 26.4651C30.0174 26.5357 30.1272 26.6063 30.2371 26.6769C30.4489 26.8025 30.6745 26.9123 30.9021 26.9987C30.9021 26.9987 30.9021 26.9986 30.9099 27.0065C31.2611 27.1399 31.6298 27.2419 32.0045 27.289C32.1065 27.3047 32.2007 27.3125 32.3027 27.3204C32.3184 27.3125 32.3341 27.3125 32.3498 27.3204C32.6166 27.3361 32.8735 27.3361 33.1325 27.3047C33.2894 27.289 33.4463 27.2654 33.6013 27.234C33.7582 27.2105 33.9073 27.1713 34.0544 27.1163C34.3526 27.0379 34.641 26.9202 34.9078 26.7731C35.049 26.7024 35.1824 26.624 35.306 26.5377C35.4708 26.4278 35.6336 26.3101 35.7827 26.1708C35.0863 26.7181 34.2094 27.0398 33.2561 27.0398C30.9727 27.0398 29.1248 25.1939 29.1248 22.9165C29.1248 21.7669 29.5937 20.7253 30.345 19.9838L28.35 17.8711C28.5069 18.0359 28.6246 18.2301 28.7011 18.4341C28.913 18.9657 28.8502 19.5758 28.5363 20.0995C27.9831 21.045 27.732 22.1946 27.9439 23.4147Z" fill="url(#paint4_linear_300_2248)"/>
<path opacity="0.25" d="M27.9439 23.4147C27.9674 23.5324 27.991 23.658 28.0224 23.7737C28.2499 24.6349 28.7188 25.4019 29.3524 26.0041C29.525 26.1767 29.7192 26.3317 29.9154 26.4651C30.0174 26.5357 30.1272 26.6063 30.2371 26.6769C30.4489 26.8025 30.6745 26.9123 30.9021 26.9987C30.9021 26.9987 30.9021 26.9986 30.9099 27.0065C31.2611 27.1399 31.6298 27.2419 32.0045 27.289C32.1065 27.3047 32.2007 27.3125 32.3027 27.3204C32.3184 27.3125 32.3341 27.3125 32.3498 27.3204C32.6166 27.3361 32.8735 27.3361 33.1325 27.3047C33.2894 27.289 33.4463 27.2654 33.6013 27.234C33.7582 27.2105 33.9073 27.1713 34.0544 27.1163C34.3526 27.0379 34.641 26.9202 34.9078 26.7731C35.049 26.7024 35.1824 26.624 35.306 26.5377C35.4708 26.4278 35.6336 26.3101 35.7827 26.1708C35.0863 26.7181 34.2094 27.0398 33.2561 27.0398C30.9727 27.0398 29.1248 25.1939 29.1248 22.9165C29.1248 21.7669 29.5937 20.7253 30.345 19.9838L28.35 17.8711C28.5069 18.0359 28.6246 18.2301 28.7011 18.4341C28.913 18.9657 28.8502 19.5758 28.5363 20.0995C27.9831 21.045 27.732 22.1946 27.9439 23.4147Z" fill="black"/>
<path d="M37.2531 21.176C37.3865 21.6135 37.4414 22.0607 37.4414 22.5139C37.4414 23.7654 36.9648 25.0091 36.0173 25.9644L36.0094 25.9722C35.7897 26.1841 35.5563 26.3705 35.3052 26.5352C35.1797 26.6215 35.0463 26.7 34.907 26.7706C34.6402 26.9197 34.3518 27.0374 34.0537 27.1139C33.9046 27.1688 33.7555 27.2081 33.6005 27.2316C33.4436 27.263 33.2867 27.2865 33.1317 27.3022C32.8728 27.3336 32.6158 27.3336 32.349 27.3179C32.3333 27.3101 32.3176 27.3101 32.3019 27.3179C32.1999 27.3101 32.1058 27.3022 32.0037 27.2865C31.6291 27.2395 31.2603 27.1375 30.9091 27.0041C30.9013 26.9962 30.9013 26.9962 30.9013 26.9962C30.6737 26.9099 30.4482 26.8001 30.2363 26.6745C30.1264 26.6039 30.0166 26.5333 29.9146 26.4627C29.7184 26.3293 29.5242 26.1723 29.3516 26.0017C28.718 25.3994 28.2492 24.6324 28.0216 23.7713C27.9902 23.6536 27.9667 23.528 27.9431 23.4123C27.7313 22.1921 27.9824 21.0426 28.5375 20.0951C28.8514 19.5714 28.9122 18.9613 28.7023 18.4297C28.6238 18.2257 28.5061 18.0315 28.3512 17.8667L28.3433 17.8589L28.2413 17.749C26.3562 15.7462 22.9919 17.0762 22.9919 19.8303V35.7491C22.9919 39.5272 27.5606 41.4202 30.2285 38.7445L37.1354 31.8533L39.7326 29.256C41.8532 27.1277 42.7673 24.2421 42.4476 21.4565C42.22 19.4772 41.3687 17.5685 39.8974 16.011L25.495 0.774852C25.0085 0.266784 24.3592 0 23.7099 0C23.2803 0 22.8566 0.109852 22.4819 0.335442C22.2936 0.445294 22.1229 0.578687 21.966 0.733657C21.4893 1.21034 21.2539 1.8361 21.2539 2.46187C21.2539 3.07194 21.4736 3.68202 21.9268 4.1587L36.1095 19.1634C36.5312 19.6165 36.8608 20.1265 37.0727 20.6738C37.1197 20.768 37.1511 20.8621 37.1747 20.9563C37.206 21.0289 37.2374 21.0995 37.2531 21.176Z" fill="url(#paint5_linear_300_2248)"/>
<path opacity="0.2" d="M22.4805 0.335442L42.4442 21.4565C42.2166 19.4772 41.3653 17.5685 39.894 16.011L25.4936 0.774852C25.0071 0.266784 24.3578 0 23.7085 0C23.2789 0 22.8571 0.109852 22.4805 0.335442Z" fill="white"/>
<path opacity="0.1" d="M22.9902 24.7832V35.7508C22.9902 39.5289 27.5589 41.4219 30.2268 38.7462L37.1337 31.855L32.1354 36.049C29.0458 38.6462 24.3202 36.7532 23.8749 32.7475L22.9902 24.7832Z" fill="black"/>
<path opacity="0.2" d="M28.1352 20.2908C28.4138 20.0436 28.6139 19.714 28.6708 19.3472C28.7335 18.949 28.6668 18.4252 28.2823 17.9544C27.5977 17.1148 25.8048 16.1595 24.0138 17.672C23.6195 18.0054 23.3272 18.488 23.1958 18.9863C23.0977 19.3629 23.0997 19.8023 23.0859 20.4712V23.7943V24.781L28.1352 20.2908Z" fill="white"/>
</g>
<defs>
<linearGradient id="paint0_linear_300_2248" x1="-0.202929" y1="23.639" x2="14.4945" y2="23.463" gradientUnits="userSpaceOnUse">
<stop stop-color="#23CE6B"/>
<stop offset="1" stop-color="#233375"/>
</linearGradient>
<linearGradient id="paint1_linear_300_2248" x1="-0.212684" y1="22.7447" x2="14.4847" y2="22.5687" gradientUnits="userSpaceOnUse">
<stop stop-color="#23CE6B"/>
<stop offset="1" stop-color="#233375"/>
</linearGradient>
<linearGradient id="paint2_linear_300_2248" x1="10.7918" y1="-0.104732" x2="10.2691" y2="39.9355" gradientUnits="userSpaceOnUse">
<stop stop-color="#23CE6B"/>
<stop offset="0.489583" stop-color="#23CE6B"/>
<stop offset="1" stop-color="#233375"/>
</linearGradient>
<linearGradient id="paint3_linear_300_2248" x1="42.7123" y1="23.639" x2="28.0149" y2="23.463" gradientUnits="userSpaceOnUse">
<stop stop-color="#23CE6B"/>
<stop offset="1" stop-color="#233375"/>
</linearGradient>
<linearGradient id="paint4_linear_300_2248" x1="42.7228" y1="22.7447" x2="28.0254" y2="22.5687" gradientUnits="userSpaceOnUse">
<stop stop-color="#23CE6B"/>
<stop offset="1" stop-color="#233375"/>
</linearGradient>
<linearGradient id="paint5_linear_300_2248" x1="31.7175" y1="-0.104732" x2="32.2402" y2="39.9355" gradientUnits="userSpaceOnUse">
<stop stop-color="#23CE6B"/>
<stop offset="0.458333" stop-color="#23CE6B"/>
<stop offset="1" stop-color="#233375"/>
</linearGradient>
<clipPath id="clip0_300_2248">
<rect width="150.688" height="40" fill="white"/>
</clipPath>
</defs>
</svg>
