<svg width="151" height="40" viewBox="0 0 151 40" fill="none" xmlns="http://www.w3.org/2000/svg">
<g clip-path="url(#clip0_300_2248)">
<path d="M63.854 10.0234L63.4043 13.1393H56.6954L56.1038 17.5252H61.8819L61.4441 20.6134H55.6423L54.5222 28.5411H50.5859L53.1969 10.0234H63.854Z" fill="url(#paint0_linear_300_2248)"/>
<path d="M68.9425 16.2112L67.2071 28.5366H63.5391L65.2745 16.2112H68.9425ZM65.6334 12.7916C65.6334 12.271 65.8188 11.8253 66.1895 11.4546C66.5603 11.0838 67.006 10.8984 67.5266 10.8984C68.0472 10.8984 68.5087 11.0838 68.8794 11.4546C69.2502 11.8253 69.4355 12.271 69.4355 12.7916C69.4355 13.3122 69.2502 13.7737 68.8794 14.1445C68.5087 14.5152 68.059 14.7006 67.5266 14.7006C66.9941 14.7006 66.5603 14.5152 66.1895 14.1445C65.8188 13.7737 65.6334 13.3241 65.6334 12.7916Z" fill="url(#paint1_linear_300_2248)"/>
<path d="M82.1866 10.4054L81.7764 13.3595C80.9994 12.9612 80.3131 12.764 79.7176 12.764C78.1005 12.764 77.2091 13.9117 77.0513 16.2111H79.4139L79.0273 18.9286H76.6293L74.5192 33.9479H70.8669L72.9889 18.9286H70.4844L70.8669 16.2111H73.3754C73.6199 14.1089 74.2628 12.5116 75.308 11.419C76.3493 10.3265 77.6587 9.78223 79.2324 9.78223C80.1711 9.78223 81.1532 9.99126 82.1905 10.4054H82.1866Z" fill="url(#paint2_linear_300_2248)"/>
<path d="M86.3671 13.6123L85.8505 16.2115H88.5601L88.071 18.929H85.3732L84.6594 22.9204C84.5962 23.2636 84.5647 23.583 84.5647 23.8749C84.5647 24.9595 84.9315 25.5038 85.6612 25.5038C86.1029 25.5038 86.8049 25.2554 87.7752 24.7623V27.9965C86.6985 28.5171 85.6454 28.7775 84.6199 28.7775C83.4288 28.7775 82.4861 28.3988 81.8038 27.6455C81.1175 26.8882 80.7783 25.9101 80.7783 24.7071C80.7783 24.3364 80.8138 23.9735 80.8848 23.6225L81.7446 18.929H79.252L79.7134 16.2115H82.2061L82.6439 13.6123H86.3593H86.3671Z" fill="url(#paint3_linear_300_2248)"/>
<path d="M102.613 16.2109L93.6281 34.7799H89.7747L93.3836 27.3531L89.4355 16.2109H93.1036L95.5253 23.409L98.7989 16.2109H102.609H102.613Z" fill="url(#paint4_linear_300_2248)"/>
<path d="M114.485 10.4054L114.075 13.3595C113.298 12.9612 112.612 12.764 112.016 12.764C110.399 12.764 109.508 13.9117 109.35 16.2111H111.713L111.326 18.9286H108.928L106.818 33.9479H103.166L105.288 18.9286H102.783L103.166 16.2111H105.674C105.919 14.1089 106.562 12.5116 107.607 11.419C108.648 10.3265 109.958 9.78223 111.531 9.78223C112.47 9.78223 113.452 9.99126 114.489 10.4054H114.485Z" fill="url(#paint5_linear_300_2248)"/>
<path d="M117.327 16.2112L115.592 28.5366H111.924L113.659 16.2112H117.327ZM114.018 12.7916C114.018 12.271 114.204 11.8253 114.574 11.4546C114.945 11.0838 115.391 10.8984 115.911 10.8984C116.432 10.8984 116.893 11.0838 117.264 11.4546C117.635 11.8253 117.82 12.271 117.82 12.7916C117.82 13.3122 117.635 13.7737 117.264 14.1445C116.893 14.5152 116.444 14.7006 115.911 14.7006C115.379 14.7006 114.945 14.5152 114.574 14.1445C114.204 13.7737 114.018 13.3241 114.018 12.7916Z" fill="url(#paint6_linear_300_2248)"/>
<path d="M130.573 10.4054L130.163 13.3595C129.386 12.9612 128.7 12.764 128.104 12.764C126.487 12.764 125.596 13.9117 125.438 16.2111H127.801L127.414 18.9286H125.016L122.906 33.9479H119.254L121.376 18.9286H118.871L119.254 16.2111H121.762C122.007 14.1089 122.65 12.5116 123.695 11.419C124.736 10.3265 126.045 9.78223 127.619 9.78223C128.558 9.78223 129.54 9.99126 130.577 10.4054H130.573Z" fill="url(#paint7_linear_300_2248)"/>
<path d="M134.754 13.6123L134.237 16.2115H136.947L136.458 18.929H133.76L133.046 22.9204C132.983 23.2636 132.951 23.583 132.951 23.8749C132.951 24.9595 133.318 25.5038 134.048 25.5038C134.49 25.5038 135.192 25.2554 136.162 24.7623V27.9965C135.085 28.5171 134.032 28.7775 133.007 28.7775C131.815 28.7775 130.873 28.3988 130.191 27.6455C129.508 26.8922 129.165 25.9101 129.165 24.7071C129.165 24.3364 129.201 23.9735 129.271 23.6225L130.131 18.929H127.639L128.1 16.2115H130.593L131.031 13.6123H134.746H134.754Z" fill="url(#paint8_linear_300_2248)"/>
<path d="M151 16.2109L142.015 34.7799H138.161L141.77 27.3531L137.822 16.2109H141.49L143.912 23.409L147.186 16.2109H150.996H151Z" fill="url(#paint9_linear_300_2248)"/>
<path d="M15.555 37.5484C7.73384 37.1816 1.38381 30.8355 1.01701 23.0104C0.622594 14.5542 7.13829 7.50208 15.3894 7.0209C15.8785 6.99329 16.2847 7.3877 16.2847 7.87677V12.0891C16.2847 12.5348 15.9494 12.9174 15.5038 12.9529C10.4908 13.367 6.5861 17.7529 6.94896 22.9473C7.27238 27.5579 11.0035 31.293 15.6142 31.6125C20.8086 31.9754 25.1945 28.0707 25.6086 23.0577C25.6441 22.612 26.0267 22.2768 26.4724 22.2768H30.6847C31.1738 22.2768 31.5682 22.687 31.5406 23.1721C31.0594 31.4232 24.0073 37.9389 15.5511 37.5445L15.555 37.5484Z" fill="url(#paint10_linear_300_2248)"/>
<path d="M30.8627 36.6847V32.4724C30.8627 32.0267 31.1979 31.6441 31.6436 31.6086C36.6566 31.1945 40.5613 26.8086 40.1984 21.6142C39.875 17.0035 36.1439 13.2684 31.5332 12.949C26.3388 12.5861 21.9529 16.4908 21.5388 21.5038C21.5033 21.9495 21.1207 22.2847 20.675 22.2847H16.4627C15.9736 22.2847 15.5792 21.8745 15.6068 21.3894C16.088 13.1383 23.1401 6.62259 31.5963 7.01701C39.4175 7.38381 45.7675 13.7299 46.1343 21.555C46.5287 30.0112 40.0131 37.0633 31.7619 37.5445C31.2729 37.5721 30.8666 37.1777 30.8666 36.6886L30.8627 36.6847Z" fill="url(#paint11_linear_300_2248)"/>
</g>
<defs>
<linearGradient id="paint0_linear_300_2248" x1="57.5118" y1="-3.61928" x2="56.9951" y2="37.297" gradientUnits="userSpaceOnUse">
<stop stop-color="#0689EF"/>
<stop offset="1" stop-color="#233375"/>
</linearGradient>
<linearGradient id="paint1_linear_300_2248" x1="66.793" y1="-3.50156" x2="66.2763" y2="37.4108" gradientUnits="userSpaceOnUse">
<stop stop-color="#0689EF"/>
<stop offset="1" stop-color="#233375"/>
</linearGradient>
<linearGradient id="paint2_linear_300_2248" x1="76.5623" y1="-3.37931" x2="76.0456" y2="37.537" gradientUnits="userSpaceOnUse">
<stop stop-color="#0689EF"/>
<stop offset="1" stop-color="#233375"/>
</linearGradient>
<linearGradient id="paint3_linear_300_2248" x1="84.1742" y1="-3.28037" x2="83.6575" y2="37.632" gradientUnits="userSpaceOnUse">
<stop stop-color="#0689EF"/>
<stop offset="1" stop-color="#233375"/>
</linearGradient>
<linearGradient id="paint4_linear_300_2248" x1="96.2707" y1="-3.13104" x2="95.7501" y2="37.7853" gradientUnits="userSpaceOnUse">
<stop stop-color="#0689EF"/>
<stop offset="1" stop-color="#233375"/>
</linearGradient>
<linearGradient id="paint5_linear_300_2248" x1="109.208" y1="-14.202" x2="108.175" y2="37.5922" gradientUnits="userSpaceOnUse">
<stop stop-color="#ABE098"/>
<stop offset="1" stop-color="#04A949"/>
</linearGradient>
<linearGradient id="paint6_linear_300_2248" x1="115.568" y1="-14.0718" x2="114.531" y2="37.7185" gradientUnits="userSpaceOnUse">
<stop stop-color="#ABE098"/>
<stop offset="1" stop-color="#04A949"/>
</linearGradient>
<linearGradient id="paint7_linear_300_2248" x1="125.292" y1="-13.8786" x2="124.259" y2="37.9117" gradientUnits="userSpaceOnUse">
<stop stop-color="#ABE098"/>
<stop offset="1" stop-color="#04A949"/>
</linearGradient>
<linearGradient id="paint8_linear_300_2248" x1="132.924" y1="-13.7244" x2="131.886" y2="38.0659" gradientUnits="userSpaceOnUse">
<stop stop-color="#ABE098"/>
<stop offset="1" stop-color="#04A949"/>
</linearGradient>
<linearGradient id="paint9_linear_300_2248" x1="145.005" y1="-13.4844" x2="143.971" y2="38.3059" gradientUnits="userSpaceOnUse">
<stop stop-color="#ABE098"/>
<stop offset="1" stop-color="#04A949"/>
</linearGradient>
<linearGradient id="paint10_linear_300_2248" x1="0.665979" y1="10.8546" x2="28.547" y2="36.6136" gradientUnits="userSpaceOnUse">
<stop stop-color="#0689EF"/>
<stop offset="1" stop-color="#233375"/>
</linearGradient>
<linearGradient id="paint11_linear_300_2248" x1="32.1564" y1="7.88077" x2="29.2772" y2="39.9978" gradientUnits="userSpaceOnUse">
<stop stop-color="#ABE098"/>
<stop offset="1" stop-color="#04A949"/>
</linearGradient>
<clipPath id="clip0_300_2248">
<rect width="150.688" height="40" fill="white"/>
</clipPath>
</defs>
</svg>
