<svg width="717" height="486" viewBox="0 0 717 486" fill="none" xmlns="http://www.w3.org/2000/svg">
<g opacity="0.34">
<path d="M231.136 485.114C106.934 479.289 6.09494 378.512 0.270063 254.248C-5.99325 119.962 97.4767 7.97446 228.505 0.333221C236.272 -0.105211 242.723 6.15809 242.723 13.9246V80.8167C242.723 87.8943 237.399 93.9697 230.321 94.5334C150.715 101.11 88.7079 170.758 94.4702 253.246C99.6061 326.464 158.857 385.777 232.075 390.851C314.563 396.613 384.211 334.606 390.787 254.999C391.351 247.922 397.427 242.598 404.504 242.598H471.396C479.163 242.598 485.426 249.112 484.988 256.816C477.346 387.844 365.358 491.314 231.073 485.051L231.136 485.114Z" fill="url(#paint0_linear_411_2301)"/>
<path d="M474.212 471.397V404.504C474.212 397.427 479.536 391.351 486.614 390.788C566.22 384.211 628.227 314.563 622.465 232.075C617.329 158.857 558.078 99.5436 484.86 94.4703C402.372 88.7081 332.724 150.715 326.148 230.322C325.584 237.399 319.508 242.723 312.431 242.723H245.539C237.772 242.723 231.509 236.209 231.947 228.505C239.589 97.4767 351.577 -5.99325 485.862 0.270063C610.064 6.09494 710.903 106.872 716.728 231.136C722.991 365.421 619.521 477.409 488.493 485.051C480.726 485.489 474.275 479.226 474.275 471.459L474.212 471.397Z" fill="url(#paint1_linear_411_2301)"/>
</g>
<defs>
<linearGradient id="paint0_linear_411_2301" x1="-5.30429" y1="61.2126" x2="437.449" y2="470.269" gradientUnits="userSpaceOnUse">
<stop stop-color="#0689EF"/>
<stop offset="1" stop-color="#233375"/>
</linearGradient>
<linearGradient id="paint1_linear_411_2301" x1="494.756" y1="13.9867" x2="449.034" y2="524.008" gradientUnits="userSpaceOnUse">
<stop stop-color="#ABE098"/>
<stop offset="1" stop-color="#04A949"/>
</linearGradient>
</defs>
</svg>
