<svg width="12" height="10" viewBox="0 0 12 10" fill="none" xmlns="http://www.w3.org/2000/svg">
<path d="M10.5293 2.5896C10.5339 2.6952 10.5339 2.796 10.5339 2.9016C10.5386 6.10321 8.18632 9.79922 3.8847 9.79922C2.61597 9.79922 1.3704 9.42002 0.300781 8.70961C0.485997 8.73361 0.671212 8.74321 0.856427 8.74321C1.90752 8.74321 2.93084 8.37841 3.75968 7.70161C2.75951 7.68241 1.87974 7.00561 1.57414 6.01681C1.92605 6.08881 2.28721 6.07441 2.62986 5.97361C1.54172 5.75281 0.759189 4.7592 0.754559 3.6024C0.754559 3.5928 0.754559 3.5832 0.754559 3.5736C1.07869 3.7608 1.44449 3.8664 1.81492 3.876C0.791602 3.1656 0.472105 1.74959 1.09258 0.640789C2.28258 2.15759 4.03287 3.0744 5.9128 3.1752C5.72296 2.33519 5.98226 1.45199 6.58884 0.85679C7.52881 -0.0600128 9.01053 -0.0120127 9.89956 0.96239C10.4228 0.85679 10.9275 0.655189 11.3859 0.371989C11.21 0.93359 10.8442 1.40879 10.358 1.71119C10.821 1.65359 11.2748 1.52399 11.7008 1.33199C11.3859 1.82159 10.9877 2.24399 10.5293 2.5896Z" fill="#B2B3C1"/>
</svg>
