<svg width="12" height="10" viewBox="0 0 12 10" fill="none" xmlns="http://www.w3.org/2000/svg">
<path d="M11.7528 2.11348C11.6144 1.59948 11.2092 1.19421 10.6952 1.05583C9.75614 0.798828 5.99997 0.798828 5.99997 0.798828C5.99997 0.798828 2.24381 0.798828 1.30477 1.04594C0.800656 1.18433 0.385501 1.59948 0.247116 2.11348C0 3.05253 0 4.9998 0 4.9998C0 4.9998 0 6.95696 0.247116 7.88611C0.385501 8.40011 0.790771 8.80538 1.30477 8.94377C2.2537 9.20077 5.99997 9.20077 5.99997 9.20077C5.99997 9.20077 9.75614 9.20077 10.6952 8.95365C11.2092 8.81527 11.6144 8.41 11.7528 7.896C11.9999 6.95696 11.9999 5.00968 11.9999 5.00968C11.9999 5.00968 12.0098 3.05253 11.7528 2.11348Z" fill="#B2B3C1"/>
<path d="M4.80273 6.79918L7.92628 5.00018L4.80273 3.20117V6.79918Z" fill="#000330"/>
</svg>
